<?xml version="1.0" encoding="UTF-8" standalone="no"?>
<!-- Created with Inkscape (http://www.inkscape.org/) -->

<svg
   xmlns:dc="http://purl.org/dc/elements/1.1/"
   xmlns:cc="http://creativecommons.org/ns#"
   xmlns:rdf="http://www.w3.org/1999/02/22-rdf-syntax-ns#"
   xmlns:svg="http://www.w3.org/2000/svg"
   xmlns="http://www.w3.org/2000/svg"
   xmlns:sodipodi="http://sodipodi.sourceforge.net/DTD/sodipodi-0.dtd"
   xmlns:inkscape="http://www.inkscape.org/namespaces/inkscape"
   width="512pt"
   height="512pt"
   viewBox="0 0 180.62223 180.62222"
   version="1.1"
   id="svg8"
   inkscape:version="0.92.3 (2405546, 2018-03-11)"
   sodipodi:docname="neko.svg">
  <defs
     id="defs2" />
  <sodipodi:namedview
     id="base"
     pagecolor="#ffffff"
     bordercolor="#666666"
     borderopacity="1.0"
     inkscape:pageopacity="0.0"
     inkscape:pageshadow="2"
     inkscape:zoom="0.7"
     inkscape:cx="197.68842"
     inkscape:cy="509.85198"
     inkscape:document-units="mm"
     inkscape:current-layer="g836"
     showgrid="false"
     inkscape:window-width="1920"
     inkscape:window-height="1017"
     inkscape:window-x="1912"
     inkscape:window-y="-8"
     inkscape:window-maximized="1"
     units="pt" />
  <metadata
     id="metadata5">
    <rdf:RDF>
      <cc:Work
         rdf:about="">
        <dc:format>image/svg+xml</dc:format>
        <dc:type
           rdf:resource="http://purl.org/dc/dcmitype/StillImage" />
        <dc:title></dc:title>
      </cc:Work>
    </rdf:RDF>
  </metadata>
  <g
     inkscape:groupmode="layer"
     id="layer6"
     inkscape:label="本体"
     style="display:inline"
     transform="translate(0,-116.37778)">
    <g
       id="g836"
       transform="matrix(1.2896936,0,0,1.2895101,-49.531997,67.491849)">
      <g
         id="g841"
         transform="translate(0.82060834,-1.2310877)">
        <path
           inkscape:connector-curvature="0"
           id="path1388"
           d="m 48.076583,140.36805 a 67.531873,67.531873 0 0 1 -7.601752,-31.12772 67.531873,67.531873 0 0 1 67.531879,-67.531872 67.531873,67.531873 0 0 1 67.53187,67.531872 v 0 0 a 67.531873,67.531873 0 0 1 -49.64489,65.11997"
           style="display:inline;fill:#c8c8c8;fill-opacity:1;stroke:#000100;stroke-width:5;stroke-miterlimit:4;stroke-dasharray:none;stroke-opacity:1;paint-order:normal"
           inkscape:export-xdpi="27.18"
           inkscape:export-ydpi="27.18"
           inkscape:export-filename="C:\Users\cat\Desktop\favicons\msite-310x150.png" />
        <path
           inkscape:connector-curvature="0"
           id="path1390"
           d="M 125.89369,174.36029 A 67.531873,67.531873 0 0 1 108.0067,176.7722 67.531873,67.531873 0 0 1 48.076582,140.36804"
           style="display:inline;fill:none;stroke:#000000;stroke-width:5;stroke-miterlimit:4;stroke-dasharray:none;stroke-opacity:1;paint-order:normal"
           inkscape:export-xdpi="27.18"
           inkscape:export-ydpi="27.18"
           inkscape:export-filename="C:\Users\cat\Desktop\favicons\msite-310x150.png" />
        <path
           inkscape:connector-curvature="0"
           id="path1464"
           d="m 102.2987,175.73315 c -7.130725,-0.59125 -13.156682,-1.962 -19.478196,-4.43078 -13.470494,-5.26071 -24.776628,-14.65655 -32.504012,-27.01211 -0.62942,-1.00641 -1.39089,-2.30062 -1.69215,-2.87602 l -0.54776,-1.0462 0.69993,-0.85416 c 0.38496,-0.46979 2.42136,-2.49825 4.525347,-4.50769 6.777777,-6.4732 9.426314,-9.21386 10.653494,-11.02405 2.27829,-3.36066 4.148287,-7.09168 8.524937,-17.00893 5.298047,-12.005077 6.813204,-14.513484 11.418541,-18.903885 3.60315,-3.434976 9.607387,-7.871047 13.136524,-9.705551 2.021627,-1.05088 4.584635,-3.196352 7.150905,-5.98597 3.23202,-3.51331 5.05997,-5.277406 8.16707,-7.881782 1.96758,-1.64923 3.34646,-2.988844 4.37509,-4.250489 2.28679,-2.804818 4.24385,-4.582591 5.04474,-4.582591 0.5219,0 1.28182,0.857494 1.62872,1.837833 0.34304,0.969439 0.33847,7.202951 -0.007,9.123476 -0.1401,0.779577 -0.62477,3.046016 -1.07704,5.036532 -1.45916,6.422043 -1.63815,7.438194 -1.36758,7.764208 0.13223,0.159322 2.45304,1.749359 5.15736,3.533413 9.11484,6.0131 12.30513,8.556503 14.00621,11.166205 1.3409,2.057104 2.74742,4.906184 3.40415,6.895471 0.47503,1.43893 0.52671,1.84283 0.49574,3.87426 -0.0719,4.71875 0.93118,7.81026 4.07112,12.54666 2.16093,3.25963 3.09742,6.06689 2.44002,7.31434 -0.15933,0.30234 -0.85522,1.1025 -1.54642,1.77814 -1.55049,1.51557 -1.71263,1.81751 -1.97011,3.66871 -0.1132,0.81386 -0.3725,1.85656 -0.57622,2.31711 -0.51384,1.16161 -2.43424,3.09925 -4.18433,4.22189 -0.80766,0.51809 -1.74979,1.29382 -2.09361,1.72384 -2.02778,2.53615 -3.0179,3.26384 -5.25534,3.86245 -2.13857,0.57215 -3.94945,0.44106 -7.9375,-0.57459 -5.2651,-1.34087 -5.94727,-1.26498 -6.45774,0.71846 -0.36923,1.43461 -0.30367,10.54315 0.1104,15.33966 0.47304,5.47962 0.80444,7.19073 2.50072,12.91208 0.47219,1.59264 0.82036,2.93386 0.77373,2.9805 -0.16538,0.16538 -5.17931,1.19489 -7.22696,1.48391 -3.61622,0.51041 -6.12892,0.67248 -9.92188,0.63994 -2.0269,-0.0174 -4.02545,-0.0598 -4.44122,-0.0943 z"
           style="display:inline;fill:#000000;fill-opacity:1;stroke:#000900;stroke-width:0.94494045;stroke-miterlimit:4;stroke-dasharray:none;stroke-opacity:1;paint-order:normal"
           inkscape:export-xdpi="27.18"
           inkscape:export-ydpi="27.18"
           inkscape:export-filename="C:\Users\cat\Desktop\favicons\msite-310x150.png" />
      </g>
    </g>
    <rect
       style="fill:#c8c8c8;fill-opacity:0;stroke:none;stroke-width:30.05749893;stroke-miterlimit:4;stroke-dasharray:none;stroke-opacity:1;paint-order:normal"
       id="rect1477"
       width="289.7327"
       height="140.32904"
       x="-36.806854"
       y="38.944992"
       inkscape:export-filename="C:\Users\cat\Desktop\favicons\msite-310x150.png"
       inkscape:export-xdpi="27.18"
       inkscape:export-ydpi="27.18" />
  </g>
</svg>
